<mxfile host="app.diagrams.net" agent="Mozilla/5.0 (X11; Linux x86_64) AppleWebKit/537.36 (KHTML, like Gecko) Chrome/138.0.0.0 Safari/537.36" version="28.0.6">
  <diagram name="Page-1" id="3E6Lz03q8jk7RNRRDwQZ">
    <mxGraphModel dx="1824" dy="550" grid="1" gridSize="10" guides="1" tooltips="1" connect="1" arrows="1" fold="1" page="1" pageScale="1" pageWidth="850" pageHeight="1100" math="0" shadow="0">
      <root>
        <mxCell id="0" />
        <mxCell id="1" parent="0" />
        <mxCell id="Sa71L9GygfFAZ6kpuvyg-6" value="" style="edgeStyle=orthogonalEdgeStyle;rounded=0;orthogonalLoop=1;jettySize=auto;html=1;fontSize=20;" edge="1" parent="1" source="Sa71L9GygfFAZ6kpuvyg-3">
          <mxGeometry relative="1" as="geometry">
            <mxPoint x="100" y="253" as="targetPoint" />
          </mxGeometry>
        </mxCell>
        <mxCell id="Sa71L9GygfFAZ6kpuvyg-3" value="PZEM-004T" style="rounded=0;whiteSpace=wrap;html=1;fontSize=20;" vertex="1" parent="1">
          <mxGeometry x="-80" y="223" width="120" height="60" as="geometry" />
        </mxCell>
        <mxCell id="Sa71L9GygfFAZ6kpuvyg-9" style="edgeStyle=orthogonalEdgeStyle;rounded=0;orthogonalLoop=1;jettySize=auto;html=1;entryX=0;entryY=0.25;entryDx=0;entryDy=0;fontSize=20;" edge="1" parent="1" source="Sa71L9GygfFAZ6kpuvyg-5" target="Sa71L9GygfFAZ6kpuvyg-7">
          <mxGeometry relative="1" as="geometry" />
        </mxCell>
        <mxCell id="Sa71L9GygfFAZ6kpuvyg-5" value="Sensor IR" style="rounded=0;whiteSpace=wrap;html=1;fontSize=20;" vertex="1" parent="1">
          <mxGeometry x="-79" y="530" width="120" height="60" as="geometry" />
        </mxCell>
        <mxCell id="Sa71L9GygfFAZ6kpuvyg-7" value="Mikrokontroller ESP32&lt;div&gt;(Manajemen)&lt;/div&gt;" style="rounded=0;whiteSpace=wrap;html=1;fontSize=20;" vertex="1" parent="1">
          <mxGeometry x="100" y="510" width="160" height="200" as="geometry" />
        </mxCell>
        <mxCell id="Sa71L9GygfFAZ6kpuvyg-11" style="edgeStyle=orthogonalEdgeStyle;rounded=0;orthogonalLoop=1;jettySize=auto;html=1;entryX=0;entryY=0.75;entryDx=0;entryDy=0;fontSize=20;" edge="1" parent="1" source="Sa71L9GygfFAZ6kpuvyg-10" target="Sa71L9GygfFAZ6kpuvyg-7">
          <mxGeometry relative="1" as="geometry" />
        </mxCell>
        <mxCell id="Sa71L9GygfFAZ6kpuvyg-10" value="Real Time Clock" style="rounded=0;whiteSpace=wrap;html=1;fontSize=20;" vertex="1" parent="1">
          <mxGeometry x="-80" y="630" width="120" height="60" as="geometry" />
        </mxCell>
        <mxCell id="Sa71L9GygfFAZ6kpuvyg-53" value="" style="edgeStyle=orthogonalEdgeStyle;rounded=0;orthogonalLoop=1;jettySize=auto;html=1;exitX=1;exitY=0.763;exitDx=0;exitDy=0;exitPerimeter=0;entryX=0.006;entryY=0.844;entryDx=0;entryDy=0;entryPerimeter=0;fontSize=20;" edge="1" parent="1">
          <mxGeometry relative="1" as="geometry">
            <mxPoint x="550" y="440.0400000000002" as="sourcePoint" />
            <mxPoint x="640.7200000000003" y="439.6400000000001" as="targetPoint" />
          </mxGeometry>
        </mxCell>
        <mxCell id="Sa71L9GygfFAZ6kpuvyg-13" value="Antares" style="whiteSpace=wrap;html=1;rounded=0;fontSize=20;" vertex="1" parent="1">
          <mxGeometry x="100" y="389" width="450" height="80" as="geometry" />
        </mxCell>
        <mxCell id="Sa71L9GygfFAZ6kpuvyg-54" style="edgeStyle=orthogonalEdgeStyle;rounded=0;orthogonalLoop=1;jettySize=auto;html=1;exitX=0.75;exitY=1;exitDx=0;exitDy=0;entryX=-0.004;entryY=0.341;entryDx=0;entryDy=0;entryPerimeter=0;fontSize=20;" edge="1" parent="1" source="Sa71L9GygfFAZ6kpuvyg-22" target="Sa71L9GygfFAZ6kpuvyg-52">
          <mxGeometry relative="1" as="geometry" />
        </mxCell>
        <mxCell id="Sa71L9GygfFAZ6kpuvyg-22" value="PC&lt;div&gt;(Windows/Linux)&lt;/div&gt;" style="rounded=0;whiteSpace=wrap;html=1;fontSize=20;" vertex="1" parent="1">
          <mxGeometry x="470" y="259" width="160" height="100" as="geometry" />
        </mxCell>
        <mxCell id="Sa71L9GygfFAZ6kpuvyg-25" value="" style="edgeStyle=orthogonalEdgeStyle;rounded=0;orthogonalLoop=1;jettySize=auto;html=1;fontSize=20;" edge="1" parent="1" source="Sa71L9GygfFAZ6kpuvyg-24" target="Sa71L9GygfFAZ6kpuvyg-22">
          <mxGeometry relative="1" as="geometry" />
        </mxCell>
        <mxCell id="Sa71L9GygfFAZ6kpuvyg-24" value="API OpenMeteo" style="rounded=0;whiteSpace=wrap;html=1;fontSize=20;" vertex="1" parent="1">
          <mxGeometry x="490" y="160" width="120" height="60" as="geometry" />
        </mxCell>
        <mxCell id="Sa71L9GygfFAZ6kpuvyg-32" value="Buzzer" style="rounded=0;whiteSpace=wrap;html=1;fontSize=20;" vertex="1" parent="1">
          <mxGeometry x="310" y="299" width="120" height="60" as="geometry" />
        </mxCell>
        <mxCell id="Sa71L9GygfFAZ6kpuvyg-33" style="edgeStyle=orthogonalEdgeStyle;rounded=0;orthogonalLoop=1;jettySize=auto;html=1;entryX=0.992;entryY=0.578;entryDx=0;entryDy=0;entryPerimeter=0;startArrow=classic;startFill=1;endArrow=none;endFill=0;fontSize=20;" edge="1" parent="1" source="Sa71L9GygfFAZ6kpuvyg-32">
          <mxGeometry relative="1" as="geometry">
            <mxPoint x="259.03999999999996" y="328.98" as="targetPoint" />
          </mxGeometry>
        </mxCell>
        <mxCell id="Sa71L9GygfFAZ6kpuvyg-34" value="Relay&lt;br&gt;(Gedung)" style="rounded=0;whiteSpace=wrap;html=1;fontSize=20;" vertex="1" parent="1">
          <mxGeometry x="310" y="161" width="120" height="60" as="geometry" />
        </mxCell>
        <mxCell id="Sa71L9GygfFAZ6kpuvyg-42" style="edgeStyle=orthogonalEdgeStyle;rounded=0;orthogonalLoop=1;jettySize=auto;html=1;entryX=0;entryY=0.5;entryDx=0;entryDy=0;fontSize=20;" edge="1" parent="1" target="Sa71L9GygfFAZ6kpuvyg-34">
          <mxGeometry relative="1" as="geometry">
            <mxPoint x="260" y="191" as="sourcePoint" />
          </mxGeometry>
        </mxCell>
        <mxCell id="Sa71L9GygfFAZ6kpuvyg-38" value="Mikrokontroller ESP32&lt;div&gt;(Monitoring)&lt;/div&gt;" style="rounded=0;whiteSpace=wrap;html=1;fontSize=20;" vertex="1" parent="1">
          <mxGeometry x="100" y="160" width="160" height="190" as="geometry" />
        </mxCell>
        <mxCell id="Sa71L9GygfFAZ6kpuvyg-40" value="Display LCD" style="rounded=0;whiteSpace=wrap;html=1;fontSize=20;" vertex="1" parent="1">
          <mxGeometry x="310.96000000000004" y="229" width="120" height="60" as="geometry" />
        </mxCell>
        <mxCell id="Sa71L9GygfFAZ6kpuvyg-41" style="edgeStyle=orthogonalEdgeStyle;rounded=0;orthogonalLoop=1;jettySize=auto;html=1;entryX=0.992;entryY=0.578;entryDx=0;entryDy=0;entryPerimeter=0;startArrow=classic;startFill=1;endArrow=none;endFill=0;fontSize=20;" edge="1" parent="1" source="Sa71L9GygfFAZ6kpuvyg-40">
          <mxGeometry relative="1" as="geometry">
            <mxPoint x="260" y="258.98" as="targetPoint" />
          </mxGeometry>
        </mxCell>
        <mxCell id="Sa71L9GygfFAZ6kpuvyg-43" value="Buzzer" style="rounded=0;whiteSpace=wrap;html=1;fontSize=20;" vertex="1" parent="1">
          <mxGeometry x="309.04" y="580" width="120" height="60" as="geometry" />
        </mxCell>
        <mxCell id="Sa71L9GygfFAZ6kpuvyg-44" style="edgeStyle=orthogonalEdgeStyle;rounded=0;orthogonalLoop=1;jettySize=auto;html=1;entryX=0.992;entryY=0.578;entryDx=0;entryDy=0;entryPerimeter=0;startArrow=classic;startFill=1;endArrow=none;endFill=0;fontSize=20;" edge="1" parent="1" source="Sa71L9GygfFAZ6kpuvyg-43">
          <mxGeometry relative="1" as="geometry">
            <mxPoint x="258.08" y="609.98" as="targetPoint" />
          </mxGeometry>
        </mxCell>
        <mxCell id="Sa71L9GygfFAZ6kpuvyg-45" value="" style="rounded=0;whiteSpace=wrap;html=1;fontSize=20;" vertex="1" parent="1">
          <mxGeometry x="310" y="653" width="119.04" height="60" as="geometry" />
        </mxCell>
        <mxCell id="Sa71L9GygfFAZ6kpuvyg-46" style="edgeStyle=orthogonalEdgeStyle;rounded=0;orthogonalLoop=1;jettySize=auto;html=1;entryX=0.992;entryY=0.578;entryDx=0;entryDy=0;entryPerimeter=0;startArrow=classic;startFill=1;endArrow=none;endFill=0;fontSize=20;" edge="1" parent="1" source="Sa71L9GygfFAZ6kpuvyg-45">
          <mxGeometry relative="1" as="geometry">
            <mxPoint x="258.04" y="683" as="targetPoint" />
          </mxGeometry>
        </mxCell>
        <mxCell id="Sa71L9GygfFAZ6kpuvyg-47" value="Display OLED" style="rounded=0;whiteSpace=wrap;html=1;fontSize=20;" vertex="1" parent="1">
          <mxGeometry x="310.00000000000006" y="510" width="120" height="60" as="geometry" />
        </mxCell>
        <mxCell id="Sa71L9GygfFAZ6kpuvyg-48" style="edgeStyle=orthogonalEdgeStyle;rounded=0;orthogonalLoop=1;jettySize=auto;html=1;entryX=0.992;entryY=0.578;entryDx=0;entryDy=0;entryPerimeter=0;startArrow=classic;startFill=1;endArrow=none;endFill=0;fontSize=20;" edge="1" parent="1" source="Sa71L9GygfFAZ6kpuvyg-47">
          <mxGeometry relative="1" as="geometry">
            <mxPoint x="259.04" y="539.98" as="targetPoint" />
          </mxGeometry>
        </mxCell>
        <mxCell id="Sa71L9GygfFAZ6kpuvyg-52" value="Mobile Apps" style="rounded=0;whiteSpace=wrap;html=1;fontSize=20;" vertex="1" parent="1">
          <mxGeometry x="640" y="399" width="120" height="60" as="geometry" />
        </mxCell>
        <mxCell id="Sa71L9GygfFAZ6kpuvyg-55" style="edgeStyle=orthogonalEdgeStyle;rounded=0;orthogonalLoop=1;jettySize=auto;html=1;entryX=0.928;entryY=0.021;entryDx=0;entryDy=0;entryPerimeter=0;startArrow=classic;startFill=1;endArrow=none;endFill=0;fontSize=20;" edge="1" parent="1" target="Sa71L9GygfFAZ6kpuvyg-13">
          <mxGeometry relative="1" as="geometry">
            <mxPoint x="260" y="320" as="targetPoint" />
            <mxPoint x="518" y="360" as="sourcePoint" />
          </mxGeometry>
        </mxCell>
        <mxCell id="Sa71L9GygfFAZ6kpuvyg-57" style="edgeStyle=orthogonalEdgeStyle;rounded=0;orthogonalLoop=1;jettySize=auto;html=1;entryX=0.178;entryY=0.013;entryDx=0;entryDy=0;entryPerimeter=0;fontSize=20;" edge="1" parent="1" source="Sa71L9GygfFAZ6kpuvyg-38" target="Sa71L9GygfFAZ6kpuvyg-13">
          <mxGeometry relative="1" as="geometry" />
        </mxCell>
        <mxCell id="Sa71L9GygfFAZ6kpuvyg-58" style="edgeStyle=orthogonalEdgeStyle;rounded=0;orthogonalLoop=1;jettySize=auto;html=1;entryX=0.178;entryY=0.961;entryDx=0;entryDy=0;entryPerimeter=0;fontSize=20;" edge="1" parent="1" source="Sa71L9GygfFAZ6kpuvyg-7" target="Sa71L9GygfFAZ6kpuvyg-13">
          <mxGeometry relative="1" as="geometry" />
        </mxCell>
        <mxCell id="Sa71L9GygfFAZ6kpuvyg-62" value="" style="shape=stencil(UzV2TkpMzk4vyi/NS1E1dlU1cFQ1MgAhY+eCxJIMFCGYRG5+WSqQVaFq7KJqBBI0AvIqUXiqRm5YteZk5iFpNaWeXhOSNBsaUFO3KUm6SdObnJNfnIpF3tgZKIIUQ2A+elQCAA==);whiteSpace=wrap;html=1;" vertex="1" parent="1">
          <mxGeometry x="-90" y="730" width="120" height="120" as="geometry" />
        </mxCell>
        <mxCell id="Sa71L9GygfFAZ6kpuvyg-70" value="" style="shape=stencil(tVTbcoMgEP0aHpNRmX5Aa9sf6EOeiW4qEwQHiNa/7yI6DUZM6rQzPrBn5Zy9sYTmpmINkCyRrAZCX0mWiQ8PZYhWHkqTxNvdzGamgcJ6sGWas6MYbxqr1Rk6XtqRg8sKNLfOS99I8oz/uI/mhZISSbiSJvBc+ZGMcYl3ky9PNsr3gdUgfw0WdID+JCY7j5DsfaNQ+piQ2SCUbhKCDRntn8LiTfY9sQKkcy4K0hyRWCNpfmTF+VOriywXw9RuhtZ7Ox+8+WAuBhSRpflJaViJp2FuaG8ck7tWLdwJd7khE4HgMkpQ/Z6g+1uC1eGNEOxQ9cXsma4Pw4v/T76HSlwI5R5H9GUgHukyTgcXwq+v2GBF5ge3qe1xAS6RsrLEg1U+hxJO7CLszv8/W4nhRXx1usfjGcb8w6K0THh4vS5D2C6Gm1yuQ/bAsP4H4Bs=);whiteSpace=wrap;html=1;" vertex="1" parent="1">
          <mxGeometry x="-90" y="870" width="120" height="120" as="geometry" />
        </mxCell>
        <mxCell id="Sa71L9GygfFAZ6kpuvyg-103" value="" style="verticalLabelPosition=bottom;verticalAlign=top;html=1;shape=mxgraph.basic.polygon;polyCoords=[[0.44,0.7],[0.63,0.7],[0.63,0.08],[1,0.08],[1,1],[0,1],[0,0.08],[0.44,0.08]];polyline=0;fillColor=none;dashed=1;dashPattern=8 8;strokeWidth=2;strokeColor=#EA6B66;fontSize=20;" vertex="1" parent="1">
          <mxGeometry x="-100" y="110" width="870" height="370" as="geometry" />
        </mxCell>
        <mxCell id="Sa71L9GygfFAZ6kpuvyg-105" value="" style="verticalLabelPosition=bottom;verticalAlign=top;html=1;shape=mxgraph.basic.polygon;polyCoords=[[0.61,0.07],[0.61,0.48],[0.61,0.69],[0.99,0.69],[0.99,0.96],[0,0.96],[0,0.08],[0.44,0.08]];polyline=0;fillColor=none;dashed=1;dashPattern=8 8;strokeWidth=2;strokeColor=#0000FF;" vertex="1" parent="1">
          <mxGeometry x="-90" y="124" width="870" height="370" as="geometry" />
        </mxCell>
        <mxCell id="Sa71L9GygfFAZ6kpuvyg-106" value="" style="verticalLabelPosition=bottom;verticalAlign=top;html=1;shape=mxgraph.basic.polygon;polyCoords=[[0.61,0.07],[0.99,0.07],[0.99,0.34],[0.62,0.34],[0.62,1],[0,1],[0,0.08],[0.44,0.08]];polyline=0;fillColor=none;dashed=1;dashPattern=8 8;strokeWidth=2;strokeColor=#00CC00;" vertex="1" parent="1">
          <mxGeometry x="-110" y="354" width="890" height="370" as="geometry" />
        </mxCell>
        <mxCell id="Sa71L9GygfFAZ6kpuvyg-108" value="" style="endArrow=none;html=1;rounded=0;strokeWidth=5;strokeColor=#0000FF;fontSize=20;" edge="1" parent="1">
          <mxGeometry width="50" height="50" relative="1" as="geometry">
            <mxPoint x="510" y="610" as="sourcePoint" />
            <mxPoint x="538" y="610" as="targetPoint" />
          </mxGeometry>
        </mxCell>
        <mxCell id="Sa71L9GygfFAZ6kpuvyg-109" value="" style="endArrow=none;html=1;rounded=0;strokeWidth=5;strokeColor=#00CC00;fontSize=20;" edge="1" parent="1">
          <mxGeometry width="50" height="50" relative="1" as="geometry">
            <mxPoint x="510" y="670" as="sourcePoint" />
            <mxPoint x="538" y="670" as="targetPoint" />
          </mxGeometry>
        </mxCell>
        <mxCell id="Sa71L9GygfFAZ6kpuvyg-110" value="" style="endArrow=none;html=1;rounded=0;strokeWidth=5;strokeColor=#EA6B66;fontSize=20;" edge="1" parent="1">
          <mxGeometry width="50" height="50" relative="1" as="geometry">
            <mxPoint x="510" y="550" as="sourcePoint" />
            <mxPoint x="538" y="550" as="targetPoint" />
          </mxGeometry>
        </mxCell>
        <mxCell id="Sa71L9GygfFAZ6kpuvyg-111" value="&lt;font&gt;= Sub-Sistem 1&lt;/font&gt;" style="text;html=1;align=center;verticalAlign=middle;resizable=0;points=[];autosize=1;strokeColor=none;fillColor=none;fontSize=20;" vertex="1" parent="1">
          <mxGeometry x="537" y="531" width="160" height="40" as="geometry" />
        </mxCell>
        <mxCell id="Sa71L9GygfFAZ6kpuvyg-112" value="&lt;font&gt;= Sub-Sistem 2&lt;/font&gt;" style="text;html=1;align=center;verticalAlign=middle;resizable=0;points=[];autosize=1;strokeColor=none;fillColor=none;fontSize=20;" vertex="1" parent="1">
          <mxGeometry x="537" y="591" width="160" height="40" as="geometry" />
        </mxCell>
        <mxCell id="Sa71L9GygfFAZ6kpuvyg-113" value="&lt;font&gt;= Sub-Sistem 3&lt;/font&gt;" style="text;html=1;align=center;verticalAlign=middle;resizable=0;points=[];autosize=1;strokeColor=none;fillColor=none;fontSize=20;" vertex="1" parent="1">
          <mxGeometry x="538" y="650" width="160" height="40" as="geometry" />
        </mxCell>
        <mxCell id="Sa71L9GygfFAZ6kpuvyg-114" value="&lt;font style=&quot;font-size: 15px;&quot;&gt;Relay&lt;/font&gt;&lt;div&gt;&lt;font style=&quot;font-size: 15px;&quot;&gt;(Per Komponen&lt;br&gt;Listrik)&lt;/font&gt;&lt;/div&gt;" style="text;html=1;align=center;verticalAlign=middle;resizable=0;points=[];autosize=1;strokeColor=none;fillColor=none;" vertex="1" parent="1">
          <mxGeometry x="303" y="647" width="130" height="70" as="geometry" />
        </mxCell>
      </root>
    </mxGraphModel>
  </diagram>
</mxfile>
